<svg width="189" height="26" viewBox="0 0 189 26" fill="none" xmlns="http://www.w3.org/2000/svg">
<g clip-path="url(#clip0_18_1263)">
<path d="M116.86 9.48469C116.904 9.48469 116.938 9.49909 116.972 9.52789L117.235 9.78707C117.045 9.97426 116.836 10.1423 116.612 10.2958C116.388 10.4446 116.144 10.5742 115.877 10.6798C115.609 10.7854 115.317 10.867 114.996 10.9246C114.674 10.9822 114.324 11.011 113.944 11.011C113.307 11.011 112.718 10.9102 112.187 10.7038C111.656 10.4974 111.194 10.2046 110.814 9.83027C110.43 9.4511 110.133 8.99512 109.923 8.46236C109.714 7.92479 109.607 7.32963 109.607 6.67687C109.607 6.02411 109.714 5.44814 109.933 4.91537C110.152 4.38261 110.454 3.92664 110.848 3.54746C111.238 3.16828 111.71 2.8707 112.26 2.65951C112.81 2.44833 113.414 2.34273 114.076 2.34273C114.738 2.34273 115.263 2.43393 115.755 2.61152C116.242 2.79391 116.685 3.04349 117.084 3.37467L116.879 3.64345C116.845 3.69145 116.792 3.71545 116.714 3.71545C116.66 3.71545 116.578 3.67225 116.461 3.58586C116.344 3.49946 116.178 3.40347 115.969 3.29307C115.76 3.18748 115.502 3.09149 115.19 3.00509C114.879 2.9187 114.509 2.8755 114.071 2.8755C113.516 2.8755 113.005 2.9619 112.542 3.13948C112.08 3.31707 111.681 3.56666 111.35 3.89304C111.019 4.21942 110.756 4.62259 110.571 5.09296C110.386 5.56333 110.289 6.0961 110.289 6.68167C110.289 7.26723 110.381 7.8192 110.571 8.28957C110.761 8.75994 111.019 9.15831 111.35 9.48469C111.681 9.81107 112.07 10.0607 112.523 10.2334C112.976 10.4062 113.457 10.4926 113.983 10.4926C114.314 10.4926 114.606 10.4734 114.869 10.435C115.127 10.3966 115.366 10.3342 115.585 10.2526C115.804 10.1711 116.003 10.0751 116.193 9.95986C116.378 9.84467 116.563 9.71028 116.748 9.55189C116.767 9.53749 116.792 9.52309 116.811 9.51349C116.831 9.50389 116.855 9.49909 116.875 9.49909L116.86 9.48469Z" fill="#231F20"/>
<path d="M127.068 6.66727C127.068 7.32483 126.96 7.91519 126.746 8.45276C126.532 8.98553 126.23 9.4415 125.846 9.82067C125.456 10.1998 124.994 10.4878 124.454 10.6942C123.913 10.9006 123.315 11.0014 122.662 11.0014C122.01 11.0014 121.411 10.9006 120.876 10.6942C120.335 10.4878 119.873 10.195 119.488 9.82067C119.099 9.4415 118.802 8.98553 118.588 8.45276C118.374 7.91999 118.267 7.32483 118.267 6.66727C118.267 6.00971 118.374 5.42414 118.588 4.89138C118.802 4.35861 119.099 3.90264 119.488 3.52346C119.873 3.14428 120.34 2.8515 120.876 2.64511C121.411 2.43873 122.01 2.33313 122.662 2.33313C123.315 2.33313 123.913 2.43393 124.454 2.64031C124.994 2.8467 125.461 3.13948 125.846 3.51866C126.23 3.89784 126.532 4.35381 126.746 4.88658C126.96 5.41934 127.068 6.01451 127.068 6.66247V6.66727ZM126.376 6.66727C126.376 6.0769 126.289 5.54414 126.109 5.07377C125.928 4.60339 125.68 4.20022 125.349 3.87384C125.023 3.54746 124.629 3.29307 124.176 3.12029C123.719 2.9475 123.212 2.8611 122.662 2.8611C122.112 2.8611 121.611 2.9475 121.153 3.12029C120.696 3.29307 120.306 3.54266 119.975 3.87384C119.649 4.20022 119.391 4.60339 119.211 5.07377C119.031 5.54414 118.938 6.0769 118.938 6.66727C118.938 7.25763 119.031 7.7952 119.211 8.26557C119.391 8.73594 119.644 9.13432 119.975 9.4607C120.301 9.78708 120.696 10.0367 121.153 10.2094C121.611 10.3822 122.112 10.4686 122.662 10.4686C123.212 10.4686 123.719 10.3822 124.176 10.2094C124.634 10.0367 125.023 9.78708 125.349 9.4607C125.675 9.13432 125.928 8.73594 126.109 8.26557C126.289 7.7952 126.376 7.26243 126.376 6.66727Z" fill="#231F20"/>
<path d="M136.316 2.42884V10.9099H136.005C135.946 10.9099 135.903 10.9003 135.864 10.8811C135.825 10.8619 135.791 10.8331 135.757 10.7899L129.76 3.42718C129.774 3.54717 129.779 3.66236 129.779 3.76795V10.9099H129.19V2.42884H129.521C129.584 2.42884 129.628 2.43364 129.662 2.44804C129.696 2.46243 129.73 2.49123 129.769 2.53923L135.752 9.88278C135.737 9.76279 135.732 9.64759 135.732 9.542V2.42884H136.311H136.316Z" fill="#231F20"/>
<path d="M143.53 3.46106C143.491 3.52826 143.433 3.56186 143.36 3.56186C143.301 3.56186 143.228 3.52346 143.141 3.45147C143.053 3.37947 142.932 3.29307 142.781 3.20668C142.63 3.11549 142.44 3.03389 142.211 2.9571C141.982 2.8803 141.7 2.8419 141.364 2.8419C141.028 2.8419 140.736 2.8851 140.478 2.97149C140.225 3.05789 140.011 3.17788 139.841 3.33147C139.67 3.48506 139.539 3.65785 139.451 3.85944C139.363 4.06103 139.32 4.26742 139.32 4.4882C139.32 4.77618 139.388 5.01617 139.519 5.20336C139.651 5.39055 139.826 5.54894 140.045 5.68333C140.264 5.81292 140.507 5.92811 140.785 6.01451C141.062 6.1057 141.345 6.1921 141.637 6.28329C141.929 6.36969 142.211 6.47048 142.489 6.57607C142.766 6.68167 143.009 6.81606 143.228 6.97445C143.448 7.13284 143.623 7.32963 143.754 7.56481C143.886 7.8 143.954 8.08798 143.954 8.43836C143.954 8.78874 143.886 9.12952 143.754 9.4415C143.623 9.75348 143.428 10.0271 143.175 10.2622C142.922 10.4926 142.615 10.675 142.25 10.8094C141.885 10.9438 141.466 11.011 140.999 11.011C140.391 11.011 139.865 10.9102 139.427 10.7134C138.989 10.5166 138.604 10.243 138.273 9.90227L138.458 9.63828C138.512 9.58069 138.57 9.54709 138.643 9.54709C138.682 9.54709 138.731 9.57109 138.794 9.61909C138.857 9.66708 138.93 9.72468 139.018 9.79667C139.105 9.86867 139.208 9.94547 139.329 10.0271C139.451 10.1087 139.592 10.1855 139.753 10.2574C139.914 10.3294 140.099 10.387 140.308 10.435C140.517 10.483 140.756 10.507 141.019 10.507C141.384 10.507 141.71 10.4542 141.997 10.3534C142.284 10.2526 142.528 10.1135 142.722 9.93587C142.922 9.75828 143.073 9.55189 143.175 9.3071C143.277 9.06712 143.331 8.80794 143.331 8.52955C143.331 8.23197 143.263 7.98239 143.131 7.7904C143 7.59841 142.824 7.43522 142.605 7.30563C142.386 7.17604 142.143 7.06564 141.866 6.97925C141.588 6.89285 141.306 6.80646 141.014 6.72006C140.722 6.63847 140.439 6.54247 140.162 6.43688C139.884 6.33129 139.641 6.2017 139.422 6.03851C139.203 5.87532 139.028 5.67373 138.896 5.43374C138.765 5.19376 138.697 4.89138 138.697 4.5266C138.697 4.24342 138.755 3.96983 138.872 3.70585C138.989 3.44187 139.159 3.20668 139.388 3.00509C139.617 2.80351 139.894 2.64031 140.225 2.52032C140.556 2.40033 140.936 2.33793 141.364 2.33793C141.841 2.33793 142.274 2.40993 142.654 2.54912C143.034 2.68831 143.379 2.9043 143.696 3.19228L143.54 3.46586L143.53 3.46106Z" fill="#231F20"/>
<path d="M149.406 10.4731C149.849 10.4731 150.248 10.4011 150.598 10.262C150.949 10.118 151.246 9.92118 151.489 9.67159C151.732 9.42201 151.917 9.12442 152.049 8.78365C152.175 8.44287 152.244 8.07329 152.244 7.67491V2.42884H152.91V7.67491C152.91 8.14049 152.833 8.57726 152.667 8.98523C152.506 9.39321 152.273 9.74359 151.971 10.046C151.669 10.3484 151.299 10.5835 150.866 10.7563C150.433 10.9291 149.946 11.0155 149.406 11.0155C148.865 11.0155 148.379 10.9291 147.945 10.7563C147.512 10.5835 147.147 10.3484 146.84 10.046C146.539 9.74359 146.305 9.38841 146.144 8.98523C145.984 8.58206 145.901 8.14049 145.901 7.67491V2.42884H146.573V7.66531C146.573 8.05889 146.636 8.42847 146.767 8.76925C146.894 9.11003 147.079 9.40761 147.322 9.65719C147.566 9.90678 147.858 10.1084 148.208 10.2524C148.559 10.3963 148.953 10.4683 149.401 10.4683L149.406 10.4731Z" fill="#231F20"/>
<path d="M160.558 10.3915V10.9147H155.515V2.42884H156.186V10.3915H160.558Z" fill="#231F20"/>
<path d="M166.823 2.94712H163.581V10.9098H162.909V2.94712H159.647V2.42395H166.823V2.94712Z" fill="#231F20"/>
<path d="M169.047 10.9099H168.375V2.42884H169.047V10.9099Z" fill="#231F20"/>
<path d="M178.899 2.42884V10.9099H178.588C178.529 10.9099 178.486 10.9003 178.447 10.8811C178.408 10.8619 178.374 10.8331 178.34 10.7899L172.342 3.42718C172.357 3.54717 172.362 3.66236 172.362 3.76795V10.9099H171.773V2.42884H172.104C172.167 2.42884 172.211 2.43364 172.245 2.44804C172.279 2.46243 172.313 2.49123 172.352 2.53923L178.335 9.88278C178.32 9.76279 178.315 9.64759 178.315 9.542V2.42884H178.894H178.899Z" fill="#231F20"/>
<path d="M189 7.06084V10.0751C188.537 10.3726 188.046 10.603 187.525 10.7662C187.004 10.9246 186.415 11.0062 185.763 11.0062C185.033 11.0062 184.376 10.9054 183.791 10.699C183.207 10.4926 182.711 10.1998 182.302 9.82547C181.893 9.4511 181.577 8.99032 181.358 8.45756C181.138 7.91999 181.027 7.32483 181.027 6.67207C181.027 6.01931 181.134 5.41934 181.348 4.88658C181.562 4.35381 181.874 3.89784 182.273 3.51866C182.677 3.13948 183.159 2.8467 183.733 2.64511C184.303 2.43873 184.945 2.33793 185.656 2.33793C186.006 2.33793 186.332 2.36193 186.629 2.40513C186.926 2.44833 187.204 2.51552 187.462 2.60192C187.72 2.68831 187.958 2.79391 188.177 2.9187C188.401 3.04349 188.61 3.18748 188.815 3.35547L188.63 3.61945C188.567 3.71545 188.479 3.73945 188.357 3.68665C188.294 3.66265 188.197 3.60506 188.075 3.51866C187.953 3.43227 187.788 3.34107 187.574 3.24508C187.359 3.14908 187.097 3.06269 186.78 2.98589C186.464 2.9091 186.079 2.8707 185.627 2.8707C185.028 2.8707 184.483 2.9571 184.001 3.13468C183.519 3.31227 183.1 3.56186 182.759 3.88824C182.419 4.21462 182.156 4.61779 181.971 5.08816C181.786 5.55854 181.693 6.0913 181.693 6.67687C181.693 7.26243 181.786 7.8096 181.971 8.28477C182.156 8.75994 182.424 9.16311 182.774 9.49429C183.125 9.82547 183.548 10.0799 184.049 10.2574C184.551 10.435 185.111 10.5214 185.738 10.5214C186.011 10.5214 186.264 10.507 186.498 10.4734C186.732 10.4398 186.951 10.3966 187.165 10.339C187.374 10.2814 187.579 10.2094 187.778 10.1231C187.978 10.0367 188.177 9.94067 188.382 9.83027V7.54561H186.615C186.566 7.54561 186.527 7.53121 186.493 7.50242C186.459 7.47362 186.444 7.44002 186.444 7.40642V7.07044H188.99L189 7.06084Z" fill="#231F20"/>
<path d="M117.571 19.6508V22.665C117.108 22.9626 116.616 23.193 116.096 23.3561C115.575 23.5193 114.986 23.5961 114.334 23.5961C113.603 23.5961 112.946 23.4953 112.362 23.2889C111.778 23.0826 111.281 22.7898 110.873 22.4154C110.464 22.0362 110.147 21.5803 109.928 21.0475C109.709 20.5099 109.597 19.9148 109.597 19.262C109.597 18.6092 109.704 18.0141 109.918 17.4765C110.133 16.9437 110.444 16.4878 110.843 16.1086C111.247 15.7294 111.729 15.4366 112.304 15.235C112.873 15.0287 113.516 14.9279 114.226 14.9279C114.577 14.9279 114.903 14.9519 115.2 14.9951C115.497 15.0383 115.774 15.1054 116.032 15.1918C116.29 15.2782 116.529 15.3838 116.748 15.5086C116.972 15.6334 117.181 15.7774 117.386 15.9454L117.201 16.2094C117.137 16.3054 117.05 16.3294 116.928 16.2766C116.865 16.2526 116.767 16.195 116.646 16.1086C116.524 16.0222 116.359 15.931 116.144 15.835C115.93 15.739 115.667 15.6526 115.351 15.5758C115.034 15.499 114.65 15.4606 114.197 15.4606C113.598 15.4606 113.053 15.547 112.571 15.7246C112.085 15.9022 111.671 16.1518 111.33 16.4782C110.989 16.8045 110.727 17.2077 110.542 17.6781C110.357 18.1485 110.264 18.6812 110.264 19.2668C110.264 19.8524 110.357 20.3995 110.542 20.8747C110.727 21.3499 110.994 21.753 111.345 22.0842C111.695 22.4154 112.119 22.6698 112.62 22.8474C113.121 23.025 113.681 23.1114 114.309 23.1114C114.582 23.1114 114.835 23.097 115.069 23.0634C115.302 23.0298 115.521 22.9866 115.735 22.929C115.945 22.8714 116.149 22.7994 116.349 22.713C116.548 22.6266 116.748 22.5306 116.952 22.4202V20.1355H115.185C115.137 20.1355 115.098 20.1211 115.064 20.0923C115.03 20.0635 115.015 20.0299 115.015 19.9963V19.6604H117.561L117.571 19.6508Z" fill="#231F20"/>
<path d="M126.157 23.4998H125.583C125.51 23.4998 125.447 23.4902 125.398 23.4662C125.349 23.4422 125.301 23.4038 125.257 23.3414L122.292 19.9001C122.258 19.8569 122.219 19.8185 122.185 19.7849C122.146 19.7513 122.107 19.7273 122.064 19.7081C122.02 19.6889 121.961 19.6793 121.898 19.6697C121.835 19.6601 121.757 19.6601 121.664 19.6601H120.457V23.495H119.785V15.0188H122.146C123.207 15.0188 124.001 15.2059 124.531 15.5851C125.062 15.9643 125.325 16.5163 125.325 17.2506C125.325 17.577 125.262 17.8698 125.14 18.1386C125.018 18.4073 124.843 18.6425 124.614 18.8441C124.385 19.0457 124.108 19.2089 123.787 19.3385C123.465 19.4681 123.1 19.5545 122.696 19.5977C122.799 19.6601 122.896 19.7369 122.979 19.8377L126.157 23.5046V23.4998ZM122.059 19.2089C122.468 19.2089 122.833 19.1657 123.159 19.0745C123.485 18.9833 123.757 18.8537 123.981 18.6857C124.205 18.5177 124.376 18.3161 124.493 18.081C124.609 17.8458 124.668 17.577 124.668 17.2842C124.668 16.6794 124.454 16.2331 124.025 15.9403C123.597 15.6475 122.969 15.5035 122.151 15.5035H120.462V19.2089H122.059Z" fill="#231F20"/>
<path d="M135.868 19.2569C135.868 19.9145 135.761 20.5048 135.547 21.0424C135.333 21.5752 135.031 22.0311 134.647 22.4103C134.257 22.7895 133.795 23.0775 133.254 23.2838C132.714 23.4902 132.115 23.591 131.463 23.591C130.811 23.591 130.212 23.4902 129.677 23.2838C129.136 23.0775 128.674 22.7847 128.284 22.4103C127.895 22.0311 127.598 21.5752 127.384 21.0424C127.17 20.5096 127.063 19.9145 127.063 19.2569C127.063 18.5993 127.17 18.0138 127.384 17.481C127.598 16.9482 127.895 16.4923 128.284 16.1131C128.669 15.7339 129.136 15.4411 129.677 15.2347C130.217 15.0284 130.811 14.9228 131.463 14.9228C132.115 14.9228 132.714 15.0236 133.254 15.2299C133.795 15.4363 134.262 15.7291 134.647 16.1083C135.031 16.4875 135.333 16.9434 135.547 17.4762C135.761 18.009 135.868 18.6041 135.868 19.2521V19.2569ZM135.177 19.2569C135.177 18.6665 135.09 18.1338 134.909 17.6634C134.729 17.193 134.481 16.7898 134.15 16.4635C133.824 16.1371 133.43 15.8827 132.977 15.7099C132.519 15.5371 132.013 15.4507 131.463 15.4507C130.913 15.4507 130.412 15.5371 129.954 15.7099C129.497 15.8827 129.107 16.1323 128.776 16.4635C128.45 16.7898 128.192 17.193 128.012 17.6634C127.832 18.1338 127.739 18.6665 127.739 19.2569C127.739 19.8473 127.832 20.3848 128.012 20.8552C128.192 21.3256 128.445 21.7239 128.776 22.0503C129.102 22.3767 129.497 22.6263 129.954 22.7991C130.412 22.9719 130.913 23.0583 131.463 23.0583C132.013 23.0583 132.519 22.9719 132.977 22.7991C133.435 22.6263 133.824 22.3767 134.15 22.0503C134.476 21.7239 134.729 21.3256 134.909 20.8552C135.09 20.3848 135.177 19.8521 135.177 19.2569Z" fill="#231F20"/>
<path d="M141.374 23.0631C141.817 23.0631 142.216 22.9911 142.566 22.8519C142.917 22.7079 143.214 22.5111 143.457 22.2615C143.701 22.0119 143.886 21.7143 144.017 21.3736C144.144 21.0328 144.212 20.6632 144.212 20.2648V15.0188H144.879V20.2648C144.879 20.7304 144.801 21.172 144.635 21.5751C144.475 21.9831 144.241 22.3335 143.939 22.6359C143.637 22.9383 143.267 23.1734 142.834 23.3462C142.401 23.519 141.914 23.6054 141.374 23.6054C140.834 23.6054 140.347 23.519 139.914 23.3462C139.48 23.1734 139.115 22.9383 138.809 22.6359C138.507 22.3335 138.273 21.9783 138.112 21.5751C137.952 21.172 137.869 20.7304 137.869 20.2648V15.0188H138.541V20.26C138.541 20.6536 138.604 21.0232 138.736 21.364C138.862 21.7047 139.047 22.0023 139.29 22.2519C139.534 22.5015 139.826 22.7031 140.176 22.8471C140.527 22.9911 140.921 23.0631 141.369 23.0631H141.374Z" fill="#231F20"/>
<path d="M149.868 15.0188C150.954 15.0188 151.766 15.2347 152.317 15.6715C152.867 16.1083 153.144 16.7274 153.144 17.5338C153.144 17.9034 153.066 18.249 152.915 18.5609C152.764 18.8729 152.545 19.1417 152.263 19.3673C151.981 19.5929 151.635 19.7705 151.231 19.8953C150.827 20.02 150.374 20.0824 149.868 20.0824H148.15V23.4998H147.478V15.0188H149.868ZM149.868 19.5929C150.272 19.5929 150.637 19.5401 150.958 19.4393C151.28 19.3337 151.552 19.1897 151.776 19.0073C152 18.8249 152.17 18.6089 152.292 18.3593C152.414 18.1098 152.472 17.8362 152.472 17.5386C152.472 16.8858 152.253 16.3867 151.82 16.0315C151.387 15.6811 150.735 15.5035 149.868 15.5035H148.15V19.5929H149.868Z" fill="#231F20"/>
<path d="M105.051 0.422852H104.398V25.5157H105.051V0.422852Z" fill="#231F20"/>
<path d="M10.6798 18.3833C10.6798 18.9448 10.6604 19.5592 10.6263 20.2024C10.5922 20.8311 10.4657 21.4215 10.2417 21.9542C10.0276 22.4726 9.69655 22.9142 9.25845 23.2646C8.83496 23.6005 8.20702 23.7733 7.38924 23.7733C6.66881 23.7733 6.07495 23.6437 5.61738 23.3942C5.15494 23.1398 4.78499 22.8182 4.52214 22.439C4.24954 22.0502 4.04996 21.6327 3.93314 21.1863C3.81145 20.7399 3.74816 20.3367 3.74816 19.9912V19.684H0L0.00973549 20.0008C0.058413 21.8774 0.69122 23.351 1.88869 24.3829C3.07642 25.41 4.86288 25.9284 7.1994 25.9284C8.86903 25.9284 10.2174 25.674 11.2056 25.1796C12.1986 24.6757 12.9482 24.0277 13.4398 23.2502C13.9218 22.4822 14.2284 21.6375 14.3501 20.7351C14.4718 19.8616 14.5302 19.036 14.5302 18.2825V0.417969H10.6798V18.3833Z" fill="#231F20"/>
<path d="M54.5528 4.47332C53.3943 3.1918 51.9145 2.11187 50.1475 1.27192C48.3757 0.427174 46.2582 0 43.8584 0C41.4586 0 39.4044 0.422374 37.6958 1.25752C35.9873 2.08787 34.5561 3.15341 33.4463 4.42533C32.3364 5.69725 31.5138 7.11316 30.993 8.63467C30.477 10.1514 30.2141 11.6057 30.2141 12.964C30.2141 14.3223 30.477 15.7382 30.993 17.2405C31.5089 18.7524 32.3364 20.1684 33.4414 21.4499C34.5513 22.7362 35.9824 23.8113 37.6861 24.6561C39.3995 25.5008 41.4781 25.928 43.8535 25.928C45.4599 25.928 46.9397 25.7312 48.254 25.3376C49.5634 24.9441 50.7609 24.4113 51.8074 23.7441C52.854 23.077 53.7789 22.2994 54.548 21.4355C55.3171 20.5715 55.9596 19.6404 56.4513 18.6805C56.9429 17.7205 57.3226 16.7366 57.5757 15.767C57.8288 14.7927 57.9603 13.8471 57.9603 12.964C57.9603 11.6297 57.6779 10.1898 57.1279 8.68267C56.573 7.17076 55.7065 5.75485 54.5528 4.47332ZM43.9314 23.7729C42.5636 23.7729 41.2834 23.5042 40.1248 22.981C38.9663 22.453 37.9441 21.7091 37.0874 20.7635C36.2306 19.818 35.5443 18.6661 35.0575 17.3461C34.5659 16.0214 34.3128 14.5479 34.3128 12.9592C34.3128 11.3705 34.561 9.89699 35.0575 8.57227C35.5492 7.25235 36.2306 6.10522 37.0874 5.15488C37.9392 4.21414 38.9615 3.46539 40.1248 2.93742C41.2834 2.40945 42.5636 2.14547 43.9314 2.14547C45.2993 2.14547 46.56 2.41425 47.7575 2.94222C48.9549 3.47019 50.021 4.21894 50.9215 5.16448C51.822 6.11002 52.5473 7.25715 53.073 8.58187C53.5988 9.90659 53.8665 11.3801 53.8665 12.964C53.8665 14.5479 53.5988 16.0214 53.073 17.3461C52.5473 18.6661 51.822 19.8132 50.9215 20.7635C50.021 21.7091 48.9549 22.4578 47.7575 22.9858C46.5649 23.5138 45.2749 23.7777 43.9314 23.7777V23.7729Z" fill="#231F20"/>
<path d="M88.4276 0.417969L80.9508 13.1276L73.8293 0.417969H69.4629L78.2638 16.017V25.506H82.1093V15.705L91.0611 0.417969H88.4276Z" fill="#231F20"/>
<path d="M23.4956 21.6033L21.8778 23.1984C21.5984 23.4739 21.5984 23.9207 21.8778 24.1962L23.4956 25.7913C23.775 26.0669 24.2281 26.0669 24.5075 25.7913L26.1253 24.1962C26.4047 23.9207 26.4047 23.4739 26.1253 23.1984L24.5075 21.6033C24.2281 21.3277 23.775 21.3277 23.4956 21.6033Z" fill="#231F20"/>
<path d="M63.7775 21.6062L62.1598 23.2013C61.8803 23.4768 61.8803 23.9236 62.1598 24.1991L63.7775 25.7942C64.057 26.0698 64.51 26.0698 64.7895 25.7942L66.4072 24.1991C66.6867 23.9236 66.6867 23.4768 66.4072 23.2013L64.7895 21.6062C64.51 21.3306 64.057 21.3306 63.7775 21.6062Z" fill="#231F20"/>
<path d="M96.9652 4.24709C97.0918 4.2087 97.2135 4.1607 97.3206 4.0983C97.4666 4.01671 97.5932 3.91591 97.6954 3.80072C97.7976 3.68553 97.8755 3.55114 97.9339 3.40235C97.9875 3.25355 98.0167 3.09516 98.0167 2.92717C98.0167 2.72559 97.9826 2.5432 97.9096 2.38001C97.8366 2.21682 97.7295 2.07283 97.5835 1.95283C97.4374 1.83764 97.2524 1.74645 97.0334 1.68885C96.8143 1.63125 96.5564 1.59766 96.2594 1.59766H94.8867V6.11418H95.6461V4.38629H96.0501C96.1426 4.38629 96.1913 4.40068 96.2107 4.41028C96.2448 4.42468 96.274 4.45828 96.3032 4.50148L97.3839 5.95099C97.452 6.05658 97.5591 6.11418 97.6954 6.11418H98.3866L97.0723 4.37189C97.0383 4.32389 97.0042 4.28549 96.9652 4.24709ZM97.1989 3.31115C97.1551 3.41194 97.0918 3.49834 97.0091 3.57034C96.9214 3.64233 96.8144 3.69993 96.6878 3.74312C96.5564 3.78632 96.4006 3.80552 96.2302 3.80552H95.6461V2.22642H96.2594C96.6002 2.22642 96.863 2.28881 97.0285 2.41841C97.194 2.5432 97.2719 2.72559 97.2719 2.97517C97.2719 3.09996 97.2524 3.21036 97.2086 3.31115H97.1989Z" fill="#231F20"/>
<path d="M98.966 1.38194C98.2894 0.705182 97.3304 0.316406 96.3666 0.316406C95.4028 0.316406 94.4439 0.705182 93.7672 1.38194C93.0858 2.0539 92.6915 2.99464 92.6963 3.94498C92.6963 4.89532 93.0906 5.83607 93.7721 6.50323C94.4487 7.17518 95.4028 7.56396 96.3666 7.55916C97.3256 7.56396 98.2845 7.17518 98.9611 6.50323C99.6426 5.83607 100.042 4.89532 100.042 3.94498C100.042 2.99464 99.6523 2.0491 98.966 1.38194ZM98.6496 6.19604C98.0557 6.79121 97.2185 7.13199 96.3666 7.13199C95.5196 7.12719 94.6872 6.77681 94.0982 6.18165C93.5044 5.59128 93.1685 4.77053 93.1734 3.94498C93.1636 3.11943 93.4946 2.29388 94.0885 1.70352C94.6775 1.10836 95.5099 0.753179 96.3618 0.74838C97.2136 0.74838 98.0557 1.09876 98.6496 1.69392C99.2483 2.28908 99.5891 3.11463 99.5793 3.94978C99.5842 4.78493 99.2386 5.61048 98.6399 6.20084L98.6496 6.19604Z" fill="#231F20"/>
</g>
<defs>
<clipPath id="clip0_18_1263">
<rect width="189" height="26" fill="white"/>
</clipPath>
</defs>
</svg>
